# File created by Blade
# Date/Time:  Tue Sep 30 19:11:10 2014
#---------------------------------------------------------
:version 1.10
:name HOM
:units
  mass 1.0
  length 1.000000
  angle deg
:documentation
     Acclaim Skeleton File
:root
   axis xyz
   order TX TY TZ RX RY RZ
   position 0.000000 0.000000 0.000000
   orientation 0 0 0
:bonedata
   begin
      id 1
      name Spine_dum
      direction 0.000000 1.000000 0.000000
      length 7.508948
      axis 0.0 0.0 0.0 xyz
   end
   begin
      id 2
      name LeftUpLeg_dum
      direction 1.000000 0.000000 0.000000
      length 3.000560
      axis 0.0 0.0 0.0 xyz
   end
   begin
      id 3
      name RightUpLeg_dum
      direction -1.000000 0.000000 0.000000
      length 3.000560
      axis 0.0 0.0 0.0 xyz
   end
   begin
      id 4
      name Spine
      direction 0.000000 1.000000 0.000000
      length 0.000000
      axis 0.0 0.0 0.0 xyz
      dof rx ry rz
   end
   begin
      id 5
      name Spine_dum1
      direction 0.000000 1.000000 0.000000
      length 13.861154
      axis 0.0 0.0 0.0 xyz
   end
   begin
      id 6
      name Spine_dum2
      direction 0.000000 1.000000 0.000000
      length 8.204781
      axis 0.0 0.0 0.0 xyz
   end
   begin
      id 7
      name Spine_dum3
      direction 0.000000 1.000000 0.000000
      length 8.204781
      axis 0.0 0.0 0.0 xyz
   end
   begin
      id 8
      name Head
      direction 0.000000 1.000000 0.000000
      length 4.527550
      axis 0.0 0.0 0.0 xyz
      dof rx ry rz
   end
   begin
      id 9
      name LeftShoulder
      direction 1.000000 0.000000 0.000000
      length 6.635956
      axis 0.0 0.0 -90.0 xyz
      dof rx ry rz
   end
   begin
      id 10
      name LeftArm
      direction 1.000000 0.000000 0.000000
      length 10.274218
      axis 0.0 0.0 -90.0 xyz
      dof rx ry rz
   end
   begin
      id 11
      name LeftForeArm
      direction 1.000000 0.000000 0.000000
      length 8.522147
      axis 0.0 0.0 -90.0 xyz
      dof ry rz rx
   end
   begin
      id 12
      name LeftHand
      direction 0.000000 0.000000 0.000000
      length 0.000000
      axis 0.0 0.0 -90.0 xyz
      dof rx ry rz
   end
   begin
      id 13
      name LeftHand_dum1
      direction 0.000000 0.000000 0.000000
      length 0.000000
      axis 0.0 0.0 -90.0 xyz
   end
   begin
      id 14
      name LeftHand_dum2
      direction 1.000000 0.000000 0.000000
      length 3.937000
      axis 0.0 0.0 -90.0 xyz
   end
   begin
      id 15
      name LeftHandThumb1
      direction 0.000000 0.000000 1.000000
      length 3.937000
      axis 0.0 0.0 -90.0 xyz
      dof rx rz ry
   end
   begin
      id 16
      name RightShoulder
      direction -1.000000 0.000000 0.000000
      length 6.635956
      axis 0.0 0.0 90.0 xyz
      dof rx ry rz
   end
   begin
      id 17
      name RightArm
      direction -1.000000 0.000000 0.000000
      length 10.274218
      axis 0.0 0.0 90.0 xyz
      dof rx ry rz
   end
   begin
      id 18
      name RightForeArm
      direction -1.000000 0.000000 0.000000
      length 8.522147
      axis 0.0 0.0 90.0 xyz
      dof ry rz rx
   end
   begin
      id 19
      name RightHand
      direction 0.000000 0.000000 0.000000
      length 0.000000
      axis 0.0 0.0 90.0 xyz
      dof rx ry rz
   end
   begin
      id 20
      name RightHand_dum1
      direction 0.000000 0.000000 0.000000
      length 0.000000
      axis 0.0 0.0 90.0 xyz
   end
   begin
      id 21
      name RightHand_dum2
      direction -1.000000 0.000000 0.000000
      length 3.937000
      axis 0.0 0.0 90.0 xyz
   end
   begin
      id 22
      name RightHandThumb1
      direction 0.000000 0.000000 1.000000
      length 3.937000
      axis 0.0 0.0 90.0 xyz
      dof rx rz ry
   end
   begin
      id 23
      name LeftUpLeg
      direction 0.000000 -1.000000 0.000000
      length 16.490845
      axis 0.0 0.0 0.0 xyz
      dof rx ry rz
   end
   begin
      id 24
      name LeftLeg
      direction 0.000000 -1.000000 0.000000
      length 14.556576
      axis 0.0 0.0 0.0 xyz
      dof rx ry rz
   end
   begin
      id 25
      name LeftFoot
      direction 0.000000 -0.258819 0.965926
      length 4.831116
      axis 15.0 0.0 0.0 xyz
      dof rx ry rz
   end
   begin
      id 26
      name LeftToeBase
      direction 0.000000 0.000000 1.000000
      length 2.952750
      axis 0.0 0.0 0.0 xyz
      dof rx ry rz
   end
   begin
      id 27
      name RightUpLeg
      direction 0.000000 -1.000000 0.000000
      length 16.490845
      axis 0.0 0.0 0.0 xyz
      dof rx ry rz
   end
   begin
      id 28
      name RightLeg
      direction 0.000000 -1.000000 0.000000
      length 14.556576
      axis 0.0 0.0 0.0 xyz
      dof rx ry rz
   end
   begin
      id 29
      name RightFoot
      direction 0.000000 -0.258819 0.965926
      length 4.831116
      axis 15.0 0.0 0.0 xyz
      dof rx ry rz
   end
   begin
      id 30
      name RightToeBase
      direction 0.000000 0.000000 1.000000
      length 2.952750
      axis 0.0 0.0 0.0 xyz
      dof rx ry rz
   end
:hierarchy
   begin
      root Spine_dum LeftUpLeg_dum RightUpLeg_dum
      Spine_dum Spine
      LeftUpLeg_dum LeftUpLeg
      RightUpLeg_dum RightUpLeg
      Spine Spine_dum1 Spine_dum2 Spine_dum3
      Spine_dum1 Head
      Spine_dum2 LeftShoulder
      Spine_dum3 RightShoulder
      LeftShoulder LeftArm
      LeftArm LeftForeArm
      LeftForeArm LeftHand
      LeftHand LeftHand_dum1 LeftHand_dum2
      LeftHand_dum1 LeftHandThumb1
      RightShoulder RightArm
      RightArm RightForeArm
      RightForeArm RightHand
      RightHand RightHand_dum1 RightHand_dum2
      RightHand_dum1 RightHandThumb1
      LeftUpLeg LeftLeg
      LeftLeg LeftFoot
      LeftFoot LeftToeBase
      RightUpLeg RightLeg
      RightLeg RightFoot
      RightFoot RightToeBase
   end

# File created by Blade
# Date/Time:  Wed Sep 24 20:26:02 2014
# Frame Rate: 120.000 fps
#------------------------------------------------------
:FULLY-SPECIFIED
:DEGREES
165
root -8.325875 32.676127 -2.412892 22.150025 -80.381088 -9.661721
Spine -13.121557 5.798544 -1.290649
Head -3.561440 -7.588867 10.800120
LeftShoulder -15.665143 20.449223 20.631258
LeftArm 20.433186 -21.196844 -42.361415
LeftForeArm 7.134655 -0.000000 13.533446
LeftHand -28.197616 -0.000000 -0.427758
LeftHandThumb1 -26.253704 0.000000 33.147579
RightShoulder -19.478380 12.935421 -34.467532
RightArm -18.288475 8.984807 43.892774
RightForeArm -28.141445 -0.000000 17.620603
RightHand -13.168037 0.000000 -1.522365
RightHandThumb1 -24.326973 -0.000000 -32.862282
LeftUpLeg -7.863911 2.731879 -0.062415
LeftLeg -2.897000 -0.000000 0.000000
LeftFoot -9.579303 4.750463 -14.981920
LeftToeBase 7.171918 -0.000000 -0.000000
RightUpLeg -7.858140 -8.891063 -3.252201
RightLeg 1.917997 -0.000000 -0.000000
RightFoot -9.608882 -5.766592 -0.412771
RightToeBase -0.618675 -0.000000 0.000000
166
root -8.326121 32.674226 -2.384826 22.006817 -80.387890 -9.514348
Spine -13.107227 5.742986 -1.361967
Head -3.568788 -7.607716 10.778873
LeftShoulder -15.658812 20.511651 20.569005
LeftArm 20.287202 -21.216378 -42.349455
LeftForeArm 7.164761 -0.000000 13.742173
LeftHand -28.308509 0.000000 0.105994
LeftHandThumb1 -26.253704 0.000000 33.147579
RightShoulder -19.461165 12.858439 -34.386842
RightArm -18.289121 8.942837 44.081451
RightForeArm -28.144003 -0.000000 17.789208
RightHand -13.384357 -0.000000 -1.873150
RightHandThumb1 -24.326973 -0.000000 -32.862282
LeftUpLeg -7.854124 2.578925 -0.115837
LeftLeg -2.899944 -0.000000 0.000000
LeftFoot -9.617175 4.890141 -14.948605
LeftToeBase 7.162232 -0.000000 -0.000000
RightUpLeg -7.858546 -8.918642 -3.325080
RightLeg 1.931126 -0.000000 -0.000000
RightFoot -9.613933 -5.744417 -0.375958
RightToeBase -0.638984 -0.000000 0.000000
167
root -8.325269 32.672445 -2.358651 21.918605 -80.400465 -9.423366
Spine -13.081065 5.763446 -1.457977
Head -3.615218 -7.732922 10.812444
LeftShoulder -15.656055 20.570532 20.544763
LeftArm 20.240862 -21.228027 -42.393000
LeftForeArm 7.207941 -0.000000 13.997734
LeftHand -28.612614 -0.000000 0.416581
LeftHandThumb1 -26.253704 0.000000 33.147579
RightShoulder -19.463684 12.824755 -34.304292
RightArm -18.412448 8.984558 44.163727
RightForeArm -28.170641 -0.000000 17.931080
RightHand -13.170624 -0.000000 -1.956869
RightHandThumb1 -24.326973 -0.000000 -32.862282
LeftUpLeg -7.871434 2.509536 -0.172701
LeftLeg -2.839706 -0.000000 0.000000
LeftFoot -9.691189 5.010813 -14.906919
LeftToeBase 7.194465 -0.000000 -0.000000
RightUpLeg -7.867561 -8.865213 -3.395212
RightLeg 1.986148 -0.000000 -0.000000
RightFoot -9.672593 -5.720422 -0.313755
RightToeBase -0.470795 -0.000000 0.000000
168
root -8.323494 32.670351 -2.330533 21.853503 -80.415950 -9.358452
Spine -13.044591 5.781419 -1.530236
Head -3.640217 -7.769124 10.805913
LeftShoulder -15.622385 20.609244 20.531676
LeftArm 20.129394 -21.170384 -42.425037
LeftForeArm 7.102063 0.000000 14.173295
LeftHand -28.561819 -0.000000 0.927832
LeftHandThumb1 -26.253704 0.000000 33.147579
RightShoulder -19.505236 12.742456 -34.222043
RightArm -18.413816 9.054390 44.289279
RightForeArm -28.280800 -0.000000 18.053360
RightHand -13.287520 -0.000000 -2.113841
RightHandThumb1 -24.326973 -0.000000 -32.862282
LeftUpLeg -7.882541 2.493781 -0.240595
LeftLeg -2.809210 -0.000000 0.000000
LeftFoot -9.729160 5.004013 -14.826985
LeftToeBase 7.183665 -0.000000 -0.000000
RightUpLeg -7.887331 -8.898099 -3.450961
RightLeg 2.009444 -0.000000 -0.000000
RightFoot -9.634600 -5.783806 -0.351127
RightToeBase -0.616476 -0.000000 0.000000
169
root -8.325412 32.668942 -2.304212 21.854435 -80.412916 -9.371035
Spine -13.009211 5.740652 -1.567149
Head -3.670525 -7.811114 10.809938
LeftShoulder -15.621024 20.670570 20.482957
LeftArm 19.998546 -21.257067 -42.504119
LeftForeArm 7.284168 -0.000000 14.377073
LeftHand -28.658138 -0.000000 1.208862
LeftHandThumb1 -26.253704 0.000000 33.147579
RightShoulder -19.479787 12.739081 -34.136786
RightArm -18.482428 9.040200 44.407684
RightForeArm -28.345213 -0.000000 18.133799
RightHand -13.304900 -0.000000 -2.334209
RightHandThumb1 -24.326973 -0.000000 -32.862282
LeftUpLeg -7.876039 2.476414 -0.282419
LeftLeg -2.774220 -0.000000 0.000000
LeftFoot -9.776309 5.010354 -14.766594
LeftToeBase 7.190401 -0.000000 -0.000000
RightUpLeg -7.887403 -8.929139 -3.490857
RightLeg 2.073482 -0.000000 -0.000000
RightFoot -9.689076 -5.706882 -0.302286
RightToeBase -0.500951 -0.000000 0.000000
170
root -8.326767 32.667279 -2.277931 21.781457 -80.418512 -9.314068
Spine -12.962831 5.736881 -1.630464
Head -3.669819 -7.821092 10.797632
LeftShoulder -15.628660 20.713841 20.452766
LeftArm 19.934847 -21.192628 -42.575201
LeftForeArm 7.374560 -0.000000 14.588497
LeftHand -28.721328 -0.000000 1.560982
LeftHandThumb1 -26.253704 0.000000 33.147579
RightShoulder -19.535998 12.650027 -34.060575
RightArm -18.431829 8.965707 44.605069
RightForeArm -28.335709 -0.000000 18.173250
RightHand -13.083175 0.000000 -2.584307
RightHandThumb1 -24.326973 -0.000000 -32.862282
LeftUpLeg -7.865026 2.472578 -0.339318
LeftLeg -2.739539 -0.000000 0.000000
LeftFoot -9.801189 5.004193 -14.722425
LeftToeBase 7.175665 -0.000000 -0.000000
RightUpLeg -7.889232 -8.994171 -3.538167
RightLeg 2.129841 -0.000000 -0.000000
RightFoot -9.693124 -5.672767 -0.340921
RightToeBase -0.526379 -0.000000 0.000000
171
root -8.328460 32.665555 -2.250520 21.782530 -80.433109 -9.337163
Spine -12.918298 5.752161 -1.673105
Head -3.658432 -7.880415 10.769179
LeftShoulder -15.612704 20.786261 20.397645
LeftArm 19.872530 -21.162774 -42.651985
LeftForeArm 7.464984 -0.000000 14.729823
LeftHand -28.673809 -0.000000 1.980791
LeftHandThumb1 -26.253704 0.000000 33.147579
RightShoulder -19.576691 12.538892 -33.983147
RightArm -18.375922 8.896253 44.821283
RightForeArm -28.283970 0.000000 18.219560
RightHand -13.366570 -0.000000 -2.845342
RightHandThumb1 -24.326973 -0.000000 -32.862282
LeftUpLeg -7.838892 2.458617 -0.384698
LeftLeg -2.718219 -0.000000 0.000000
LeftFoot -9.834103 5.016811 -14.660520
LeftToeBase 7.169343 -0.000000 -0.000000
RightUpLeg -7.889332 -9.048206 -3.579869
RightLeg 2.183885 -0.000000 -0.000000
RightFoot -9.707800 -5.642597 -0.319634
RightToeBase -0.538611 -0.000000 0.000000
